<svg version="1" xmlns="http://www.w3.org/2000/svg" width="682.667" height="682.667" viewBox="0 0 512.000000 512.000000"><path d="M94.5 18.2c-20 2-37.9 13.3-49.6 31.2-12.3 18.8-13.9 45.7-3.8 66C53.3 140 78 154.7 105 153.6c18.8-.8 32.3-6.8 45.6-20 9.1-9.1 14-17.2 17.5-28.6 3.1-9.8 3.3-28.3.5-37.5-9.8-32.7-40-52.8-74.1-49.3zM399.3 18.6c-27.7 4.1-50.6 26-55.9 53.4-4.5 23.2 2.5 46.2 19 62.2 12.9 12.6 26.8 18.6 44.6 19.3 15.2.7 29-3.2 40.7-11.4 19.9-14 30.8-35.3 29.7-58.5-.8-18.5-6.7-32.5-19.1-45.2-16.1-16.5-36-23.2-59-19.8zM238 87.5c-10.7 1.9-17.4 4.1-26.2 8.5-30.6 15.2-52.3 44.8-56.6 77.5-.9 6.3-.9 23.6 0 29.5 3.2 22.5 12.7 41.1 29.4 57.6 16.2 16 33.6 24.9 56.7 28.8 5.1.9 23 1 29.2.1 6.8-.9 15.9-3.2 22.3-5.6 26.5-9.7 51-34.8 60.3-61.6 6.4-18.7 7.1-42.5 1.8-62.1-5.5-20.5-20-41.2-38.9-55.3-7.9-5.9-24.2-13.5-34-15.9-11-2.8-33.3-3.5-44-1.5zM26.8 155.4c-5.7 2-8.4 4.1-11.8 9-6.9 10.1-10.3 22.4-13.5 48.8-1.1 9.4-1.4 38.4-.4 43.5 2.3 12.3 9.4 21.3 21.2 27.1 10.8 5.3 17.6 6.4 42.4 6.5l22.2.1 7-6.8c16.6-16.4 34.9-25 57.3-27.2 3.5-.3 6.4-.7 6.5-.8.1-.1-1.4-2.6-3.3-5.6-12.3-19.4-18.6-42.6-17.8-65.5.2-5 .6-10 .9-11.3.6-2.5-.1-2.7-4.2-1.1-9.9 3.7-30.4 5.6-43.1 3.8-11-1.5-26.5-6.9-42.9-14.9-7.9-3.9-14.9-7-15.5-7-.7.1-3 .7-5 1.4zM467 159.9c-12.8 6.6-27.6 12.3-37.6 14.7-14 3.2-36.1 2.2-49.7-2.2-2.7-.9-5-1.4-5.1-1.3-.2.2 0 3.3.4 6.9 2.5 23.8-3.7 50.6-17 72.7l-3.2 5.3 2.4.1c10.2.2 25.2 3.9 35.3 8.8 10.3 5.1 16.3 9.4 25.3 18.3l7.3 7.2 22.3-.1c24.9-.2 31.6-1.2 42.4-6.5 11.5-5.7 18.8-15 21.1-26.9.5-3 .8-12.8.6-21.9-1.3-50.7-11-77.2-29.5-80.5-3-.5-5.3.3-15 5.4z"/><path d="M143.5 275.1c-32.9 6.6-55.4 32.7-66.5 77.2-3.2 12.7-3.3 13.4-4.5 20.7-.4 2.5-.9 5.2-1 6.2-1.4 7.1-2.7 28.2-2.7 42.3 0 14 .4 18.4 2.1 24.8 6.3 23.9 22.5 39.6 47.6 46.3 6.7 1.8 13.2 1.9 137 1.9 146.1 0 136.8.5 153-7.5 13.3-6.6 23-16.6 28.8-29.7 4.6-10.4 6-18.9 5.9-37.3-.1-23.3-1-32.5-5.8-58.5-2.3-12.5-9.4-32.9-15.2-43.5-15.4-28.3-35.1-42-64-44.4-8.7-.7-8.9-.6-29.4 12.7-7.9 5.2-18.1 11-22.8 13-28.3 12-55.3 14-82.5 6.2-17.2-5-25.2-9-45.4-22.4-16-10.8-18.1-11.3-34.6-8z"/></svg>