<?xml version="1.0" encoding="UTF-8"?>
<svg version="1.1" viewBox="0 0 1792 1792" xmlns="http://www.w3.org/2000/svg">
<circle cx="896" cy="896" r="896" fill="#fff" stroke-width="1.7657"/>
<path d="m1523 1339q-22-155-87.5-257.5-65.5-102.5-184.5-118.5-67 74-159.5 115.5t-195.5 41.5-195.5-41.5-159.5-115.5q-119 16-184.5 118.5-65.5 102.5-87.5 257.5 106 150 271 237.5t356 87.5 356-87.5 271-237.5zm-243-699q0-159-112.5-271.5t-271.5-112.5-271.5 112.5-112.5 271.5 112.5 271.5q112.5 112.5 271.5 112.5t271.5-112.5q112.5-112.5 112.5-271.5zm512 256q0 182-71 347.5t-190.5 286-285.5 191.5-349 71q-182 0-348-71t-286-191-191-286-71-348q0-182 71-348t191-286 286-191q166-71 348-71t348 71q166 71 286 191t191 286 71 348z"/>
</svg>
